# xmcd
# 
# Track frame offsets:
#     150
#     27742
#     53262
#     65236
#     81380
#     92004
#     109884
#     137738
#     150053
#     167627
#     178822
#     191229
#     201821
#     213203
# 
# Disc length: 3001
# 
# Revision: 11
# Processed by: cddbd v1.5.2PL0 Copyright (c) Steve Scherf et al.
# Submitted via: BonkEnc v1.0.8
# 
DISCID=c20bb70e
DTITLE=Jimi Hendrix - The best of [CD3]
DYEAR=2000
DGENRE=Rock
TTITLE0=Blues Blues
TTITLE1=Free Spirit
TTITLE2=Psycho
TTITLE3=Wipe the Sweat
TTITLE4=Groove Maker
TTITLE5=Hot Trigger
TTITLE6=Night Life
TTITLE7=You Got It
TTITLE8=Suspicious
TTITLE9=Goodbye Bessie Mae
TTITLE10=She's a Fox
TTITLE11=Freedom and You
TTITLE12=She's So Fine
TTITLE13=Sweet Thing
EXTD=YEAR: 2000
EXTT0=
EXTT1=
EXTT2=
EXTT3=
EXTT4=
EXTT5=
EXTT6=
EXTT7=
EXTT8=
EXTT9=
EXTT10=
EXTT11=
EXTT12=
EXTT13=
PLAYORDER=
